<svg xmlns="http://www.w3.org/2000/svg" width="256" height="256" viewBox="0 0 100 100"><rect width="100" height="100" rx="20" fill="#4e4740"></rect><path fill="#fff" d="M64.17 81.99L50.29 56.11L35.26 56.11L35.26 81.99L26.77 81.99L26.77 18.01L47.96 18.01Q58.77 18.01 64.59 22.93Q70.41 27.85 70.41 37.26L70.41 37.26Q70.41 43.23 67.18 47.67Q63.95 52.11 58.20 54.31L58.20 54.31L73.23 81.46L73.23 81.99L64.17 81.99ZM35.26 24.95L35.26 49.21L48.22 49.21Q54.50 49.21 58.22 45.96Q61.93 42.71 61.93 37.26L61.93 37.26Q61.93 31.32 58.39 28.16Q54.86 25.00 48.18 24.95L48.18 24.95L35.26 24.95Z"></path></svg>